# Blender v2.80 (sub 75) OBJ File: 'untitled.blend'
# www.blender.org
mtllib blood cell.mtl
o Icosphere_Icosphere.001
v 0.000000 -0.316366 0.000000
v 0.723607 -0.141485 0.525725
v -0.276388 -0.141485 0.850649
v -0.894426 -0.141484 0.000000
v -0.276388 -0.141485 -0.850649
v 0.723607 -0.141485 -0.525725
v 0.276388 0.129643 0.850649
v -0.723607 0.129642 0.525725
v -0.723607 0.129642 -0.525725
v 0.276388 0.129643 -0.850649
v 0.894426 0.129642 0.000000
v -0.162456 -0.269118 0.499995
v 0.425323 -0.269118 0.309011
v 0.262869 -0.166325 0.809012
v 0.850648 -0.166325 0.000000
v 0.425323 -0.269118 -0.309011
v -0.525730 -0.269117 0.000000
v -0.688189 -0.166325 0.499997
v -0.162456 -0.269118 -0.499995
v -0.688189 -0.166325 -0.499997
v 0.262869 -0.166325 -0.809012
v 0.951058 0.000000 0.309013
v 0.951058 0.000000 -0.309013
v 0.000000 0.000000 1.000000
v 0.587786 0.000000 0.809017
v -0.951058 0.000000 0.309013
v -0.587786 0.000000 0.809017
v -0.587786 0.000000 -0.809017
v -0.951058 0.000000 -0.309013
v 0.587786 0.000000 -0.809017
v 0.000000 0.000000 -1.000000
v 0.688189 0.166325 0.499997
v -0.262869 0.166325 0.809012
v -0.850648 0.166325 0.000000
v -0.262869 0.166325 -0.809012
v 0.688189 0.166325 -0.499997
v 0.162456 0.082559 0.499995
v 0.525730 0.082560 0.000000
v -0.425323 0.082559 0.309011
v -0.425323 0.082559 -0.309011
v 0.162456 0.082559 -0.499995
v 0.000000 -0.073707 0.000000
v 0.162456 0.082559 0.499995
v 0.525730 0.082560 0.000000
v -0.425323 0.082559 0.309011
v -0.425323 0.082559 -0.309011
v 0.162456 0.082559 -0.499995
vt 0.818181 0.000000
vt 0.772726 0.078731
vt 0.863635 0.078731
vt 0.727272 0.157461
vt 0.681818 0.078731
vt 0.636363 0.157461
vt 0.090909 0.000000
vt 0.045454 0.078731
vt 0.136363 0.078731
vt 0.272727 0.000000
vt 0.227273 0.078731
vt 0.318182 0.078731
vt 0.454545 0.000000
vt 0.409090 0.078731
vt 0.500000 0.078731
vt 0.681818 0.236191
vt 0.909090 0.157461
vt 0.818181 0.157461
vt 0.863635 0.236191
vt 0.181818 0.157461
vt 0.090909 0.157461
vt 0.136363 0.236191
vt 0.363636 0.157461
vt 0.272727 0.157461
vt 0.318182 0.236191
vt 0.545454 0.157461
vt 0.454545 0.157461
vt 0.500000 0.236191
vt 0.772726 0.236191
vt 0.954545 0.236191
vt 0.227273 0.236191
vt 0.409090 0.236191
vt 0.590909 0.236191
vt 0.818181 0.314921
vt 0.727272 0.314921
vt 0.772726 0.393651
vt 1.000000 0.314921
vt 0.909091 0.314921
vt 0.954545 0.393651
vt 0.272727 0.314921
vt 0.181818 0.314921
vt 0.227273 0.393651
vt 0.454545 0.314921
vt 0.363636 0.314921
vt 0.409090 0.393651
vt 0.636363 0.314921
vt 0.545454 0.314921
vt 0.590909 0.393651
vt 0.863635 0.393651
vt 0.863635 0.393651
vt 0.954545 0.393651
vt 0.500000 0.393651
vt 0.500000 0.393651
vt 0.590909 0.393651
vt 0.318182 0.393651
vt 0.136363 0.393651
vt 0.136363 0.393651
vt 0.227273 0.393651
vt 0.090909 0.314921
vt 0.681818 0.393651
vt 0.681818 0.393651
vt 0.772726 0.393651
vt 0.318182 0.393651
vt 0.409090 0.393651
vt 0.045454 0.236191
vt 0.000000 0.157461
vt 0.590909 0.078731
vt 0.636363 0.000000
vt 0.545454 0.472382
vt 0.363636 0.472382
vt 0.181818 0.472382
vt 0.909090 0.472382
vt 0.727272 0.472382
vn 0.0341 -0.9939 0.1050
vn 0.3151 -0.9413 0.1206
vn -0.0893 -0.9939 0.0649
vn -0.0893 -0.9939 -0.0649
vn 0.0341 -0.9939 -0.1050
vn 0.6429 -0.7419 0.1904
vn 0.0176 -0.7419 0.6703
vn -0.6321 -0.7419 0.2238
vn -0.4082 -0.7419 -0.5319
vn 0.3798 -0.7419 -0.5526
vn 0.7511 -0.3716 0.5457
vn -0.2869 -0.3716 0.8830
vn -0.9284 -0.3716 0.0000
vn -0.2869 -0.3716 -0.8830
vn 0.7511 -0.3716 -0.5457
vn -0.1568 0.9843 -0.0812
vn 0.0288 0.9843 -0.1742
vn 0.1746 0.9843 -0.0265
vn 0.0791 0.9843 0.1579
vn -0.1257 0.9843 0.1241
vn 0.0000 0.0000 1.0000
vn -0.1563 0.9812 0.1136
vn -0.1568 0.9843 0.0812
vn 0.0597 0.9812 0.1838
vn 0.0288 0.9843 0.1742
vn 0.1932 0.9812 0.0000
vn 0.1746 0.9843 0.0265
vn 0.0597 0.9812 -0.1838
vn 0.0791 0.9843 -0.1579
vn -0.1563 0.9812 -0.1136
vn -0.1257 0.9843 -0.1241
vn 0.6243 0.7546 -0.2022
vn 0.6926 0.5168 -0.5032
vn 0.3852 0.7546 -0.5313
vn 0.0007 0.7546 -0.6562
vn -0.2645 0.5168 -0.8142
vn -0.3863 0.7546 -0.5305
vn -0.6239 0.7546 -0.2034
vn -0.8561 0.5168 0.0000
vn -0.6239 0.7546 0.2034
vn -0.3863 0.7546 0.5305
vn -0.2645 0.5168 0.8142
vn 0.0007 0.7546 0.6562
vn 0.3852 0.7546 0.5313
vn 0.6926 0.5168 0.5032
vn 0.6243 0.7546 0.2022
vn 0.2832 0.4003 -0.8715
vn 0.2645 -0.5168 -0.8142
vn 0.0176 -0.7419 -0.6703
vn -0.7414 0.4003 -0.5386
vn -0.6926 -0.5168 -0.5032
vn -0.6321 -0.7419 -0.2238
vn -0.7414 0.4003 0.5386
vn -0.6926 -0.5168 0.5032
vn -0.4082 -0.7419 0.5319
vn 0.2832 0.4003 0.8715
vn 0.2645 -0.5168 0.8142
vn 0.3798 -0.7419 0.5526
vn 0.9164 0.4003 0.0000
vn 0.8561 -0.5168 0.0000
vn 0.6429 -0.7419 -0.1904
vn 0.2121 -0.9413 -0.2624
vn 0.0726 -0.9720 -0.2234
vn -0.0173 -0.9413 -0.3370
vn -0.1841 -0.9413 -0.2828
vn -0.1901 -0.9720 -0.1381
vn -0.3259 -0.9413 -0.0876
vn -0.3259 -0.9413 0.0876
vn -0.1901 -0.9720 0.1381
vn -0.1841 -0.9413 0.2828
vn 0.3151 -0.9413 -0.1206
vn 0.2349 -0.9720 0.0000
vn 0.1104 -0.9939 0.0000
vn -0.0173 -0.9413 0.3370
vn 0.0726 -0.9720 0.2234
vn 0.2121 -0.9413 0.2624
vn -0.2790 0.9387 0.2027
vn 0.1066 0.9387 0.3280
vn 0.3449 0.9387 0.0000
vn 0.1066 0.9387 -0.3280
vn -0.2790 0.9387 -0.2027
usemtl None
s off
f 1/1/1 13/2/1 12/3/1
f 2/4/2 13/5/2 15/6/2
f 1/7/3 12/8/3 17/9/3
f 1/10/4 17/11/4 19/12/4
f 1/13/5 19/14/5 16/15/5
f 2/4/6 15/6/6 22/16/6
f 3/17/7 14/18/7 24/19/7
f 4/20/8 18/21/8 26/22/8
f 5/23/9 20/24/9 28/25/9
f 6/26/10 21/27/10 30/28/10
f 2/4/11 22/16/11 25/29/11
f 3/17/12 24/19/12 27/30/12
f 4/20/13 26/22/13 29/31/13
f 5/23/14 28/25/14 31/32/14
f 6/26/15 30/28/15 23/33/15
f 7/34/16 32/35/16 37/36/16
f 8/37/17 33/38/17 39/39/17
f 9/40/18 34/41/18 40/42/18
f 10/43/19 35/44/19 41/45/19
f 11/46/20 36/47/20 38/48/20
f 39/39/21 37/49/21 43/50/21 45/51/21
f 38/48/22 36/47/22 41/52/22
f 36/47/23 10/43/23 41/52/23
f 38/48/21 41/52/21 47/53/21 44/54/21
f 41/45/24 35/44/24 40/55/24
f 35/44/25 9/40/25 40/55/25
f 40/42/21 39/56/21 45/57/21 46/58/21
f 40/42/26 34/41/26 39/56/26
f 34/41/27 8/59/27 39/56/27
f 37/36/21 38/60/21 44/61/21 43/62/21
f 39/39/28 33/38/28 37/49/28
f 33/38/29 7/34/29 37/49/29
f 41/45/21 40/55/21 46/63/21 47/64/21
f 37/36/30 32/35/30 38/60/30
f 32/35/31 11/46/31 38/60/31
f 23/33/32 36/47/32 11/46/32
f 23/33/33 30/28/33 36/47/33
f 30/28/34 10/43/34 36/47/34
f 31/32/35 35/44/35 10/43/35
f 31/32/36 28/25/36 35/44/36
f 28/25/37 9/40/37 35/44/37
f 29/31/38 34/41/38 9/40/38
f 29/31/39 26/22/39 34/41/39
f 26/22/40 8/59/40 34/41/40
f 27/30/41 33/38/41 8/37/41
f 27/30/42 24/19/42 33/38/42
f 24/19/43 7/34/43 33/38/43
f 25/29/44 32/35/44 7/34/44
f 25/29/45 22/16/45 32/35/45
f 22/16/46 11/46/46 32/35/46
f 30/28/47 31/32/47 10/43/47
f 30/28/48 21/27/48 31/32/48
f 21/27/49 5/23/49 31/32/49
f 28/25/50 29/31/50 9/40/50
f 28/25/51 20/24/51 29/31/51
f 20/24/52 4/20/52 29/31/52
f 26/22/53 27/65/53 8/59/53
f 26/22/54 18/21/54 27/65/54
f 18/21/55 3/66/55 27/65/55
f 24/19/56 25/29/56 7/34/56
f 24/19/57 14/18/57 25/29/57
f 14/18/58 2/4/58 25/29/58
f 22/16/59 23/33/59 11/46/59
f 22/16/60 15/6/60 23/33/60
f 15/6/61 6/26/61 23/33/61
f 16/15/62 21/27/62 6/26/62
f 16/15/63 19/14/63 21/27/63
f 19/14/64 5/23/64 21/27/64
f 19/12/65 20/24/65 5/23/65
f 19/12/66 17/11/66 20/24/66
f 17/11/67 4/20/67 20/24/67
f 17/9/68 18/21/68 4/20/68
f 17/9/69 12/8/69 18/21/69
f 12/8/70 3/66/70 18/21/70
f 15/6/71 16/67/71 6/26/71
f 15/6/72 13/5/72 16/67/72
f 13/5/73 1/68/73 16/67/73
f 12/3/74 14/18/74 3/17/74
f 12/3/75 13/2/75 14/18/75
f 13/2/76 2/4/76 14/18/76
f 44/54/77 47/53/77 42/69/77
f 47/64/78 46/63/78 42/70/78
f 46/58/79 45/57/79 42/71/79
f 45/51/80 43/50/80 42/72/80
f 43/62/81 44/61/81 42/73/81
